<svg width="40" height="40" viewBox="0 0 40 40" fill="none" xmlns="http://www.w3.org/2000/svg">
<path fill-rule="evenodd" clip-rule="evenodd" d="M20.0002 0C31.0439 0 40.0003 8.95645 40.0003 20.0002C40.0003 31.0439 31.0439 40 20.0002 40C8.95613 40.0003 0 31.0439 0 20.0002C0 8.95645 8.95613 0 20.0002 0ZM25.8531 31.9713H14.1472V30.0009H16.3468V17.9695H14.1472V16.4018H19.6186C21.0005 16.4018 22.3602 16.2358 23.7036 15.8969V30.0012H25.8534L25.8531 31.9713ZM20.7876 6.86138C21.6942 6.86138 22.4071 7.12343 22.9266 7.64134C23.4406 8.15892 23.7004 8.86889 23.7004 9.78361C23.7004 10.7107 23.2583 11.5353 22.368 12.2579C21.4725 12.9806 20.4341 13.3445 19.2505 13.3445C18.3608 13.3445 17.6538 13.0955 17.1121 12.5968C16.5701 12.0919 16.2993 11.4392 16.2993 10.6274C16.2993 9.60425 16.7413 8.72208 17.6206 7.9737C18.4995 7.23281 19.5548 6.86138 20.7876 6.86138Z" fill="#E8F1FF"/>
</svg>
