<svg width="46" height="60" viewBox="0 0 46 60" fill="none" xmlns="http://www.w3.org/2000/svg">
<path d="M0.297001 0.390625L0 0.765625V25.125V49.4844L0.249481 49.9062C0.427681 50.2031 2.79181 51.8281 7.8527 55.1719L15.2064 60V55V50H24.4135H33.6323L33.9175 49.6094L34.2145 49.2344V40.8594V32.5H32.3137H30.4129V38.75V45H22.8096H15.2064V27.5V10L12.5097 7.64062C11.0128 6.34375 9.7535 5.21875 9.6941 5.14062C9.62282 5.0625 14.0303 5 19.9941 5H30.4129V11.25V17.5H32.3137H34.2145V9.14062V0.765625L33.9175 0.390625L33.6323 0H17.1072H0.582121L0.297001 0.390625Z" fill="#5676FF"/>
<path d="M0.297001 0.390625L0 0.765625V25.125V49.4844L0.249481 49.9062C0.427681 50.2031 2.79181 51.8281 7.8527 55.1719L15.2064 60V55V50H24.4135H33.6323L33.9175 49.6094L34.2145 49.2344V40.8594V32.5H32.3137H30.4129V38.75V45H22.8096H15.2064V27.5V10L12.5097 7.64062C11.0128 6.34375 9.7535 5.21875 9.6941 5.14062C9.62282 5.0625 14.0303 5 19.9941 5H30.4129V11.25V17.5H32.3137H34.2145V9.14062V0.765625L33.9175 0.390625L33.6323 0H17.1072H0.582121L0.297001 0.390625Z" fill="black" fill-opacity="0.2"/>
<path d="M0.297001 0.390625L0 0.765625V25.125V49.4844L0.249481 49.9062C0.427681 50.2031 2.79181 51.8281 7.8527 55.1719L15.2064 60V55V50H24.4135H33.6323L33.9175 49.6094L34.2145 49.2344V40.8594V32.5H32.3137H30.4129V38.75V45H22.8096H15.2064V27.5V10L12.5097 7.64062C11.0128 6.34375 9.7535 5.21875 9.6941 5.14062C9.62282 5.0625 14.0303 5 19.9941 5H30.4129V11.25V17.5H32.3137H34.2145V9.14062V0.765625L33.9175 0.390625L33.6323 0H17.1072H0.582121L0.297001 0.390625Z" fill="black" fill-opacity="0.2"/>
<path d="M38.016 18.7188V22.5001H28.809H19.5901L19.305 22.8907C19.0199 23.2501 19.008 23.3751 19.008 25.0001C19.008 26.6251 19.0199 26.7501 19.305 27.1094L19.5901 27.5001H28.809H38.016V31.2813V35.0782L41.8414 30.0313L45.6787 25.0001L41.8414 19.9688L38.016 14.9219V18.7188Z" fill="#5676FF"/>
<path d="M38.016 18.7188V22.5001H28.809H19.5901L19.305 22.8907C19.0199 23.2501 19.008 23.3751 19.008 25.0001C19.008 26.6251 19.0199 26.7501 19.305 27.1094L19.5901 27.5001H28.809H38.016V31.2813V35.0782L41.8414 30.0313L45.6787 25.0001L41.8414 19.9688L38.016 14.9219V18.7188Z" fill="black" fill-opacity="0.2"/>
<path d="M38.016 18.7188V22.5001H28.809H19.5901L19.305 22.8907C19.0199 23.2501 19.008 23.3751 19.008 25.0001C19.008 26.6251 19.0199 26.7501 19.305 27.1094L19.5901 27.5001H28.809H38.016V31.2813V35.0782L41.8414 30.0313L45.6787 25.0001L41.8414 19.9688L38.016 14.9219V18.7188Z" fill="black" fill-opacity="0.2"/>
</svg>
