<svg width="45" height="45" viewBox="0 0 45 45" fill="none" xmlns="http://www.w3.org/2000/svg">
<path d="M0.219512 0.292969L0 0.574219V18.8438V37.1133L0.18439 37.4297C0.316098 37.6523 2.06342 38.8711 5.8039 41.3789L11.239 45V41.25V37.5H18.0439H24.8576L25.0683 37.207L25.2878 36.9258V30.6445V24.375H23.8829H22.4781V29.0625V33.75H16.8585H11.239V20.625V7.5L9.24586 5.73047C8.13952 4.75781 7.20878 3.91406 7.16488 3.85547C7.1122 3.79688 10.3698 3.75 14.7776 3.75H22.4781V8.4375V13.125H23.8829H25.2878V6.85547V0.574219L25.0683 0.292969L24.8576 0H12.6439H0.430244L0.219512 0.292969Z" fill="#0A0B5C"/>
<path d="M39.3366 14.0396V16.8755H32.5317H25.718L25.5073 17.1685C25.2966 17.438 25.2878 17.5317 25.2878 18.7505C25.2878 19.9692 25.2966 20.063 25.5073 20.3325L25.718 20.6255H32.5317H39.3366V23.4614V26.3091L42.1639 22.5239L45 18.7505L42.1639 14.9771L39.3366 11.1919V14.0396Z" fill="#0A0B5C"/>
</svg>
