<?xml version="1.0" standalone="no"?>
<!DOCTYPE svg PUBLIC "-//W3C//DTD SVG 20010904//EN"
 "http://www.w3.org/TR/2001/REC-SVG-20010904/DTD/svg10.dtd">
<svg version="1.0" xmlns="http://www.w3.org/2000/svg"
 width="512.000000pt" height="512.000000pt" viewBox="0 0 512.000000 512.000000"
 preserveAspectRatio="xMidYMid meet">

<g transform="translate(0.000000,512.000000) scale(0.100000,-0.100000)"
fill="#000000" stroke="none">
<path d="M1012 4741 c-96 -33 -180 -120 -207 -215 -13 -46 -15 -130 -13 -592
l3 -539 28 -57 c49 -99 175 -188 267 -188 36 0 35 14 18 -234 l-11 -179 22
-18 c13 -11 29 -19 37 -19 8 0 132 101 276 225 l263 225 660 0 c597 1 665 2
707 18 99 36 181 120 211 216 9 30 12 180 12 576 l0 535 -23 57 c-29 73 -96
141 -170 176 l-57 27 -985 2 c-934 2 -988 2 -1038 -16z m2051 -124 c26 -15 60
-47 75 -69 l27 -42 0 -552 0 -552 -30 -44 c-20 -28 -49 -52 -84 -70 l-55 -28
-673 0 -673 0 -216 -186 -217 -186 7 73 c19 239 19 259 1 279 -14 15 -31 20
-74 20 -81 0 -127 16 -177 62 -74 68 -74 70 -74 630 0 342 4 503 12 536 15 59
87 134 144 150 26 7 354 10 999 9 l960 -2 48 -28z"/>
<path d="M1260 4247 c-35 -17 -40 -69 -8 -91 20 -14 104 -16 795 -16 760 0
773 0 793 20 27 27 25 55 -6 79 -26 21 -33 21 -788 21 -591 0 -767 -3 -786
-13z"/>
<path d="M1246 3854 c-21 -21 -20 -57 2 -77 17 -15 78 -17 675 -17 583 0 657
2 671 16 19 18 21 65 4 82 -9 9 -173 12 -674 12 -589 0 -664 -2 -678 -16z"/>
<path d="M3448 3623 c-3 -422 -4 -440 -24 -484 -25 -53 -80 -110 -132 -136
-35 -17 -83 -18 -767 -21 l-730 -2 -162 -163 c-90 -89 -163 -165 -163 -169 0
-5 304 -8 676 -8 l675 0 252 -223 c139 -123 260 -226 269 -230 10 -3 26 2 39
12 l22 18 -11 179 c-17 253 -20 231 32 236 103 12 202 82 254 181 l27 52 0
485 0 485 -27 50 c-41 79 -158 174 -215 175 -9 0 -13 -103 -15 -437z"/>
<path d="M951 2400 c-124 -26 -255 -114 -409 -276 -111 -115 -129 -144 -93
-144 29 0 67 -36 86 -82 26 -64 38 -319 17 -360 -10 -22 -13 -47 -8 -89 8 -86
42 -142 91 -151 13 -2 22 -15 27 -41 11 -51 40 -107 76 -140 27 -26 28 -30 18
-67 -10 -39 -9 -41 33 -84 52 -53 113 -81 208 -97 176 -29 365 62 349 169 -4
28 2 42 38 87 42 51 62 93 68 145 2 18 10 26 28 28 39 6 48 19 76 106 28 92
24 128 -20 147 l-24 11 29 40 c113 157 98 400 -34 545 -50 55 -130 103 -171
103 -11 0 -43 23 -73 51 -89 84 -204 121 -312 99z"/>
<path d="M2305 2296 c-137 -45 -239 -142 -287 -274 -19 -50 -22 -83 -24 -264
-3 -220 -15 -300 -55 -364 -20 -34 -68 -78 -91 -87 -20 -7 29 -55 84 -83 58
-30 121 -44 236 -52 l87 -7 3 -42 c2 -32 -5 -58 -33 -113 -20 -39 -35 -75 -33
-80 3 -7 266 -215 296 -234 8 -5 65 33 163 110 82 64 151 120 154 123 2 4 -19
42 -46 85 -41 63 -50 85 -47 115 l3 36 119 12 c134 13 189 25 249 54 84 40 85
40 24 101 -83 83 -89 107 -97 403 -7 278 -13 304 -80 393 -44 58 -122 99 -205
108 -36 4 -86 19 -125 38 -57 27 -76 31 -160 33 -58 2 -111 -3 -135 -11z"/>
<path d="M3951 2260 c-100 -36 -165 -84 -298 -217 -73 -72 -133 -136 -133
-141 0 -6 17 -19 37 -29 61 -30 74 -65 86 -225 7 -101 6 -147 -2 -164 -17 -39
-14 -144 7 -184 9 -20 31 -42 49 -50 22 -10 34 -24 39 -45 8 -41 52 -119 80
-146 19 -17 21 -26 13 -46 -13 -35 -5 -56 40 -96 111 -100 354 -110 462 -20
39 33 58 72 52 105 -4 21 3 37 31 71 40 49 66 104 66 142 0 20 5 25 23 25 33
0 51 24 76 99 27 84 27 97 -8 132 -28 28 -29 29 -11 51 32 42 58 103 70 166
23 117 -17 264 -96 351 -42 47 -103 86 -150 96 -17 3 -52 26 -78 50 -72 67
-126 89 -221 93 -60 2 -93 -3 -134 -18z"/>
<path d="M2065 995 c-38 -13 -78 -24 -87 -24 -10 -1 -18 -4 -18 -9 0 -12 101
-55 109 -45 50 60 81 103 74 102 -4 -1 -39 -12 -78 -24z"/>
<path d="M2889 968 c34 -47 91 -148 91 -163 0 -3 -32 -5 -72 -5 l-72 0 -173
-131 -173 -131 -157 126 c-86 69 -159 124 -160 122 -2 -2 4 -20 13 -42 25 -60
43 -179 44 -286 l0 -98 641 0 c352 0 638 4 635 8 -3 4 -16 77 -30 161 -40 237
-63 274 -218 346 -60 27 -388 145 -405 145 -2 0 14 -24 36 -52z"/>
<path d="M523 941 c-45 -26 -142 -71 -215 -101 -73 -30 -150 -64 -170 -77 -71
-44 -108 -128 -128 -293 -5 -46 -10 -90 -10 -97 0 -11 202 -13 1035 -13 l1035
0 0 86 c0 168 -47 289 -132 337 -24 14 -90 42 -148 62 -58 20 -151 59 -208 87
-57 28 -104 49 -106 47 -1 -2 -14 -25 -29 -51 -154 -268 -664 -257 -819 18
l-23 41 -82 -46z"/>
<path d="M3613 908 l-73 -40 19 -36 c30 -59 58 -159 75 -272 9 -58 21 -126 27
-152 l11 -48 726 0 725 0 -6 93 c-10 154 -49 243 -127 292 -22 14 -100 45
-174 69 -74 25 -172 64 -218 88 -45 23 -85 44 -88 45 -3 2 -14 -15 -24 -37
-41 -86 -153 -163 -274 -189 -201 -43 -432 45 -509 192 l-18 35 -72 -40z"/>
</g>
</svg>
