<?xml version="1.0" standalone="no"?>
<!DOCTYPE svg PUBLIC "-//W3C//DTD SVG 20010904//EN"
 "http://www.w3.org/TR/2001/REC-SVG-20010904/DTD/svg10.dtd">
<svg version="1.0" xmlns="http://www.w3.org/2000/svg"
 width="512.000000pt" height="512.000000pt" viewBox="0 0 512.000000 512.000000"
 preserveAspectRatio="xMidYMid meet">

<g transform="translate(0.000000,512.000000) scale(0.100000,-0.100000)"
fill="#000000" stroke="none">
<path d="M1934 4857 c-159 -155 -176 -175 -166 -193 16 -30 1191 -1194 1205
-1194 15 0 357 341 357 356 0 6 -264 274 -586 595 -683 680 -610 609 -623 609
-5 0 -89 -78 -187 -173z"/>
<path d="M2791 4856 c-135 -135 -172 -178 -167 -192 9 -28 331 -344 350 -344
21 0 356 329 356 350 0 16 -339 360 -356 360 -5 0 -87 -78 -183 -174z"/>
<path d="M1082 4007 c-94 -95 -172 -177 -172 -183 0 -16 339 -349 355 -349 8
0 93 79 190 174 l176 175 -178 178 c-98 98 -182 178 -188 178 -6 0 -88 -78
-183 -173z"/>
<path d="M1508 3586 c-329 -326 -598 -599 -598 -607 0 -19 336 -354 355 -354
17 0 1215 1182 1215 1198 0 17 -343 357 -360 356 -8 0 -284 -267 -612 -593z"/>
<path d="M3218 3586 c-329 -326 -598 -600 -598 -607 0 -8 78 -92 174 -188 133
-132 177 -171 189 -165 27 16 1207 1187 1207 1198 0 17 -343 356 -360 356 -8
-1 -284 -268 -612 -594z"/>
<path d="M2358 3582 c-93 -92 -168 -174 -168 -183 0 -22 335 -349 357 -349 22
0 353 329 353 351 0 23 -326 344 -353 346 -17 2 -62 -37 -189 -165z"/>
<path d="M222 3157 c-94 -95 -172 -178 -172 -183 0 -10 1183 -1183 1207 -1197
11 -7 59 35 189 164 96 95 174 181 174 190 0 19 -1185 1193 -1208 1197 -11 2
-82 -63 -190 -171z"/>
<path d="M1931 3156 c-121 -122 -171 -178 -165 -188 22 -36 1189 -1183 1207
-1186 15 -3 63 39 188 164 93 93 169 175 169 183 0 18 -1187 1195 -1209 1199
-10 2 -84 -65 -190 -172z"/>
<path d="M3643 3158 c-95 -95 -173 -178 -173 -184 0 -11 1181 -1182 1207
-1197 11 -7 59 35 189 164 96 95 174 180 174 189 0 19 -1186 1194 -1209 1198
-10 1 -85 -66 -188 -170z"/>
<path d="M4498 3163 c-93 -93 -168 -176 -168 -186 0 -16 311 -330 346 -350 13
-7 53 27 190 164 96 96 174 179 174 186 0 17 -337 347 -358 351 -11 2 -79 -60
-184 -165z"/>
<path d="M1598 2823 c-50 -49 -128 -125 -174 -170 -46 -45 -84 -90 -84 -100 0
-22 329 -353 350 -353 17 0 360 339 360 355 0 12 -342 355 -354 355 -5 0 -49
-39 -98 -87z"/>
<path d="M3217 2737 c-97 -95 -177 -177 -177 -182 0 -20 347 -357 363 -354 20
5 357 338 357 354 0 13 -343 355 -356 355 -5 -1 -89 -78 -187 -173z"/>
<path d="M3214 1886 l-609 -604 181 -182 c139 -139 185 -180 197 -174 24 14
1207 1193 1207 1203 0 10 -331 340 -354 353 -10 6 -180 -157 -622 -596z"/>
<path d="M222 2310 c-94 -93 -172 -174 -172 -180 0 -18 351 -355 367 -352 19
4 353 335 353 349 0 16 -338 348 -358 351 -11 1 -82 -61 -190 -168z"/>
<path d="M1507 1887 c-329 -325 -598 -599 -597 -607 0 -20 345 -363 359 -359
15 6 1195 1182 1203 1199 7 18 -327 360 -352 360 -8 0 -284 -267 -613 -593z"/>
<path d="M2362 1887 c-94 -95 -172 -177 -172 -183 0 -14 336 -348 354 -352 21
-5 356 329 356 354 0 23 -328 354 -351 354 -8 0 -92 -78 -187 -173z"/>
<path d="M1938 1466 c-98 -95 -178 -177 -178 -182 0 -19 1198 -1206 1213
-1202 24 5 357 331 357 349 0 16 -1193 1209 -1208 1209 -4 -1 -87 -79 -184
-174z"/>
<path d="M3646 1468 c-97 -94 -176 -177 -176 -184 0 -11 341 -355 358 -362 4
-1 88 79 187 178 l180 180 -180 180 c-99 99 -183 180 -186 180 -4 0 -86 -77
-183 -172z"/>
<path d="M1943 628 c-91 -90 -169 -171 -175 -182 -9 -16 14 -42 163 -192 96
-96 181 -174 189 -174 8 0 93 78 189 174 150 150 172 176 163 192 -17 30 -338
344 -352 344 -7 0 -87 -73 -177 -162z"/>
</g>
</svg>
