<?xml version="1.0" standalone="no"?>
<!DOCTYPE svg PUBLIC "-//W3C//DTD SVG 20010904//EN"
 "http://www.w3.org/TR/2001/REC-SVG-20010904/DTD/svg10.dtd">
<svg version="1.0" xmlns="http://www.w3.org/2000/svg"
 width="72.000000pt" height="72.000000pt" viewBox="0 0 72.000000 72.000000"
 preserveAspectRatio="xMidYMid meet">

<g transform="translate(0.000000,72.000000) scale(0.100000,-0.100000)"
fill="#000000" stroke="none">
<path d="M270 685 l-24 -26 87 -87 87 -87 25 25 25 25 -88 88 -88 88 -24 -26z"/>
<path d="M390 685 l-24 -26 27 -27 27 -27 25 26 25 25 -28 27 -28 27 -24 -25z"/>
<path d="M150 565 l-24 -26 27 -27 27 -27 25 26 25 25 -28 27 -28 27 -24 -25z"/>
<path d="M210 505 l-85 -85 28 -27 27 -28 87 85 c48 47 77 73 63 57 l-24 -28
27 -27 27 -27 25 25 25 26 -58 57 -58 57 -84 -85z"/>
<path d="M450 505 l-85 -85 28 -27 27 -28 85 86 86 85 -29 27 -28 27 -84 -85z"/>
<path d="M30 445 l-24 -26 84 -84 85 -84 27 23 26 23 -87 87 -87 87 -24 -26z"/>
<path d="M270 445 l-24 -26 87 -87 87 -87 25 25 25 25 -88 88 -88 88 -24 -26z"/>
<path d="M510 445 l-24 -26 87 -87 87 -87 27 27 c15 15 25 29 22 30 -2 2 -43
40 -90 86 l-85 83 -24 -26z"/>
<path d="M630 445 l-24 -26 27 -27 27 -27 25 26 25 25 -28 27 -28 27 -24 -25z"/>
<path d="M210 385 l-24 -26 27 -27 c17 -16 31 -23 35 -17 4 6 16 16 27 24 11
8 -18 -24 -65 -72 l-85 -87 26 -25 25 -25 44 43 c63 62 141 128 111 94 l-25
-28 25 -24 24 -24 27 23 26 23 -87 87 -87 87 -24 -26z"/>
<path d="M450 385 l-24 -26 27 -26 26 -27 28 24 c16 14 -10 -15 -57 -63 l-85
-87 26 -25 25 -26 87 83 88 83 -59 58 -58 57 -24 -25z"/>
<path d="M30 325 l-24 -26 27 -27 27 -27 25 26 25 25 -28 27 -28 27 -24 -25z"/>
<path d="M269 204 l-23 -25 85 -85 85 -85 27 29 28 29 -89 81 -89 81 -24 -25z"/>
<path d="M510 205 l-24 -26 26 -26 26 -26 28 26 28 26 -24 26 c-29 31 -31 31
-60 0z"/>
<path d="M270 85 l-23 -25 23 -25 24 -25 28 27 28 27 -22 23 c-27 29 -29 29
-58 -2z"/>
</g>
</svg>
