<svg width="51" height="35" viewBox="0 0 51 35" fill="none" xmlns="http://www.w3.org/2000/svg">
<path fill-rule="evenodd" clip-rule="evenodd" d="M49.0865 4.49845C50.0452 5.45176 50.7052 6.7022 50.9168 8.09708C50.9957 8.63357 50.9915 9.09578 50.9915 9.62402V18.3276C50.9915 18.7981 51.004 19.2644 50.9625 19.7349C50.7799 21.6827 49.6842 23.4779 48.0323 24.5385C45.9405 25.888 43.5499 25.5785 41.0472 25.5785C41.8731 27.84 43.5374 29.9282 45.3346 31.5088L44.6622 32.7634L44.6414 32.7551C40.2877 31.6409 35.6973 29.0822 32.9 25.5744C31.1693 25.5579 29.754 25.5785 28.0274 25.3474C26.1265 26.4947 23.8646 27.2416 21.6317 27.2416C20.1832 29.0368 18.4981 30.572 16.5723 31.8307C14.493 33.1885 12.1439 34.2202 9.52498 34.9052C9.39632 34.9383 9.26766 34.9713 9.13484 34.9878C8.68245 35.0373 8.20931 34.8764 7.88558 34.5132C7.35433 33.9189 7.41243 33.0069 8.01009 32.4786C9.70345 30.9888 10.6497 29.3546 11.3262 27.2499C8.02254 27.2499 5.25838 27.5966 2.56892 24.9265C-0.788742 21.5837 0.0454868 13.8128 0.215653 9.14943C0.269608 7.65138 0.165848 6.66506 0.767655 5.10097C1.54793 3.0623 3.16658 1.41567 5.21272 0.598553C7.12605 -0.169046 9.2054 0.0207905 11.2225 0.0207905H23.4869C24.3875 0.0207905 25.1221 0.0166636 26.0435 0.231261C27.5958 0.586172 29.0028 1.40742 30.1026 2.60009L44.2638 2.60421C46.1356 2.60421 47.7418 3.15721 49.0865 4.49845ZM41.4664 17.659H37.7435L37.2288 19.4996H33.8919C35.0084 16.3632 36.129 13.2227 37.2454 10.0821C37.648 8.94722 38.1046 7.06949 39.5697 7.06949C41.0887 7.06949 41.5909 8.79039 42.0142 9.97893L45.4093 19.4955H41.9893L41.4664 17.659ZM40.7816 15.2448L39.6112 11.2335L38.4491 15.2448H40.7816ZM34.502 29.5733L32.0824 27.5842L29.0609 31.2942L24.6739 27.5099L22.6029 29.8374L27.3551 33.597L31.2066 33.2669L34.502 29.5733ZM31.8043 4.06925C33.2237 9.56212 34.7386 19.2107 30.9285 24.097C31.8292 24.1093 32.7174 24.1093 33.618 24.1093C35.66 26.8083 38.283 28.6943 41.3709 30.0727C41.6615 30.2006 41.9561 30.3285 42.2508 30.4441C41.2008 29.1813 40.2794 27.7245 39.6942 26.181C39.4244 25.4671 39.2791 24.8398 39.0965 24.1093C39.9432 24.1093 40.7733 24.1176 41.6241 24.1465C43.5042 24.2125 45.484 24.2662 47.0487 23.3954C47.7252 23.0199 48.2689 22.4875 48.6964 21.8478C49.0741 21.2742 49.3397 20.618 49.4559 19.9206C49.543 19.3923 49.514 18.8104 49.514 18.2739V9.33927C49.514 9.10404 49.5181 8.88944 49.5015 8.65421C49.4061 7.44503 48.8665 6.34729 48.0448 5.53017C47.2479 4.73368 46.1812 4.20544 45.0025 4.08989C44.6995 4.061 44.4007 4.06513 44.0977 4.06513L31.8043 4.06925ZM8.79451 5.56731H14.3726V4.00322H16.8629V5.56731H22.4617V8.13422H21.3121C21.2208 8.85642 21.0506 9.5745 20.8182 10.2843H20.8223C20.5858 11.0065 20.262 11.7329 19.8761 12.4509C19.2203 13.6684 18.3736 14.8363 17.3941 15.9588C18.963 17.8241 20.9054 19.446 23.2254 20.9234L21.9429 22.9084C19.5108 21.3567 17.4439 19.6482 15.7464 17.6797C14.2274 19.1406 12.505 20.5025 10.6954 21.7446L9.34651 19.805C11.1353 18.5752 12.8328 17.2298 14.2938 15.7978C12.9449 13.8376 11.9156 11.6379 11.2017 9.10816L13.4886 8.47263C14.0738 10.5484 14.8956 12.3725 15.9498 14.0068C16.6678 13.1401 17.2904 12.2528 17.7843 11.3408C18.0955 10.763 18.3612 10.1605 18.5645 9.54561H18.5687C18.7222 9.08753 18.8385 8.61294 18.9173 8.13422H8.79451V5.56731Z" fill="#E8F1FF"/>
</svg>
