<svg width="45" height="45" viewBox="0 0 45 45" fill="none" xmlns="http://www.w3.org/2000/svg">
<path d="M11.543 0.292969L11.25 0.574219V6.85547V13.125H13.125H15V8.4375V3.75H25.2773C31.1602 3.75 35.5078 3.79688 35.4375 3.85547C35.3789 3.91406 34.1367 4.75781 32.6719 5.73047L30 7.5V20.625V33.75H22.5H15V29.0625V24.375H13.125H11.25V30.6445V36.9258L11.543 37.207L11.8242 37.5H20.918H30V41.25V45L37.2539 41.3789C42.2461 38.8711 44.5781 37.6523 44.7539 37.4297L45 37.1133V18.8438V0.574219L44.707 0.292969L44.4258 0H28.125H11.8242L11.543 0.292969Z" fill="#0A0B5C"/>
<path d="M18.75 14.0391V16.875H9.66797H0.574219L0.292969 17.168C0.0117188 17.4375 0 17.5312 0 18.75C0 19.9688 0.0117188 20.0625 0.292969 20.332L0.574219 20.625H9.66797H18.75V23.4609V26.3086L22.5234 22.5234L26.3086 18.75L22.5234 14.9766L18.75 11.1914V14.0391Z" fill="#0A0B5C"/>
</svg>
