<?xml version="1.0" standalone="no"?>
<!DOCTYPE svg PUBLIC "-//W3C//DTD SVG 20010904//EN"
 "http://www.w3.org/TR/2001/REC-SVG-20010904/DTD/svg10.dtd">
<svg version="1.0" xmlns="http://www.w3.org/2000/svg"
 width="512.000000pt" height="512.000000pt" viewBox="0 0 512.000000 512.000000"
 preserveAspectRatio="xMidYMid meet">

<g transform="translate(0.000000,512.000000) scale(0.100000,-0.100000)"
fill="#000000" stroke="none">
<path d="M1625 4455 l-25 -24 0 -536 0 -535 160 0 160 0 0 400 0 400 877 0
c502 0 873 -4 867 -9 -5 -5 -111 -77 -236 -160 l-228 -151 0 -1120 0 -1120
-640 0 -640 0 0 400 0 400 -160 0 -160 0 0 -535 0 -536 25 -24 24 -25 776 0
775 0 0 -320 0 -320 619 309 c426 214 625 318 640 337 l21 27 0 1559 0 1559
-25 24 -24 25 -1391 0 -1391 0 -24 -25z"/>
<path d="M2240 3282 l0 -242 -775 0 -776 0 -24 -25 c-24 -23 -25 -31 -25 -135
0 -104 1 -112 25 -135 l24 -25 776 0 775 0 0 -242 0 -243 322 323 323 322
-323 322 -322 323 0 -243z"/>
</g>
</svg>
