<?xml version="1.0" standalone="no"?>
<!DOCTYPE svg PUBLIC "-//W3C//DTD SVG 20010904//EN"
 "http://www.w3.org/TR/2001/REC-SVG-20010904/DTD/svg10.dtd">
<svg version="1.0" xmlns="http://www.w3.org/2000/svg"
 width="516.000000pt" height="195.000000pt" viewBox="0 0 516.000000 195.000000"
 preserveAspectRatio="xMidYMid meet">

<g transform="translate(0.000000,195.000000) scale(0.100000,-0.100000)"
fill="#000000" stroke="none">
<path d="M1895 1839 c-268 -34 -516 -199 -660 -440 l-50 -83 0 -366 0 -366 50
-83 c117 -195 296 -337 520 -412 l70 -24 685 -3 c719 -3 823 1 949 40 211 65
399 214 516 409 l50 83 0 366 0 366 -50 83 c-117 195 -296 337 -520 412 l-70
24 -710 1 c-390 1 -741 -2 -780 -7z"/>
<path d="M4118 988 c-2 -117 -2 -221 0 -230 4 -17 36 -18 498 -18 l494 0 0
230 0 230 -494 0 -494 0 -4 -212z"/>
<path d="M100 960 l0 -230 494 0 c462 0 494 1 498 18 2 9 2 113 0 230 l-4 212
-494 0 -494 0 0 -230z"/>
</g>
</svg>
