<svg width="52" height="40" viewBox="0 0 52 40" fill="none" xmlns="http://www.w3.org/2000/svg">
<path fill-rule="evenodd" clip-rule="evenodd" d="M48.8945 15.1292L50.1629 16.411C50.4969 16.7486 50.4969 17.2997 50.1629 17.6373L49.1397 18.6712C49.423 19.201 49.6344 19.7778 49.7739 20.3803H51.0973C51.5708 20.3803 51.9556 20.7691 51.9556 21.2476V23.0592C51.9556 23.5377 51.5708 23.9265 51.0973 23.9265H49.6513C49.4737 24.5161 49.2201 25.0758 48.903 25.5843L49.8416 26.5285C50.1756 26.8661 50.1756 27.4172 49.8416 27.7548L48.5732 29.0365C48.2392 29.3741 47.6938 29.3741 47.3597 29.0365L46.3366 28.0026C45.8123 28.2888 45.2457 28.5067 44.6454 28.6435V29.9808C44.6454 30.4593 44.2606 30.8481 43.7871 30.8481H41.9944C41.5209 30.8481 41.1361 30.4593 41.1361 29.9808V28.5195C40.5527 28.3401 39.9988 28.0837 39.4957 27.7633L38.5613 28.7118C38.2273 29.0493 37.6819 29.0493 37.3479 28.7118L36.0795 27.43C35.7454 27.0925 35.7454 26.5413 36.0795 26.2038L37.1026 25.1698C36.8194 24.64 36.6037 24.0632 36.4684 23.4608H35.1451C34.6715 23.4608 34.2868 23.072 34.2868 22.5935V20.7819C34.2868 20.3034 34.6715 19.9145 35.1451 19.9145H36.591C36.7686 19.3249 37.0223 18.7652 37.3394 18.2568L36.405 17.3125C36.071 16.975 36.071 16.4238 36.405 16.0863L37.6734 14.8045C38.0074 14.467 38.5528 14.467 38.8868 14.8045L39.91 15.8385C40.4343 15.5522 41.0051 15.3343 41.6012 15.1976V13.8603C41.6012 13.3818 41.986 12.9929 42.4595 12.9929H44.2522C44.7257 12.9929 45.1105 13.3818 45.1105 13.8603V15.3172C45.6939 15.4967 46.2478 15.753 46.7509 16.0735L47.6853 15.1292C48.0151 14.7917 48.5605 14.7917 48.8945 15.1292ZM1.48178 30.0449C2.72058 28.7289 3.22371 28.5623 4.88954 28.2546C4.88954 19.1925 4.88954 10.3525 4.88954 1.2946C0.999788 1.67913 1.45218 5.3151 1.47332 8.69472C1.47755 9.14762 1.48178 9.38688 1.48178 9.49797V30.0449ZM12.335 11.3736H19.269H19.8059V11.9163V33.8005V34.3431H19.269H12.335H11.7981V33.8005V11.9163V11.3736H12.335ZM13.7345 30.8438H15.1763V31.6044H13.7345V30.8438ZM13.7345 28.7246H15.1763V29.4852H13.7345V28.7246ZM13.7345 26.5798H15.1763V27.3403H13.7345V26.5798ZM13.7345 24.4392H16.1276V25.1997H13.7345V24.4392ZM13.7345 22.2987H15.1763V23.0592H13.7345V22.2987ZM13.7345 20.1538H15.1763V20.9143H13.7345V20.1538ZM13.7345 18.0132H15.1763V18.7738H13.7345V18.0132ZM13.7345 15.8727H15.1763V16.6332H13.7345V15.8727ZM13.7345 13.7492H16.1276V14.5097H13.7345V13.7492ZM18.7278 12.4546H12.872V33.2536H18.7278V12.4546ZM29.8051 16.3298V34.1893H24.8584V16.3298H24.8372L25.0063 15.9838L27.0485 11.7411L27.2556 11.3095L27.4713 11.7368L29.6487 15.9795L29.8305 16.3341H29.8051V16.3298ZM25.6025 15.8428H29.0483L27.6784 13.1767H26.8878L25.6025 15.8428ZM6.35243 5.16556H42.8104C43.0937 5.16556 43.3474 5.28092 43.5292 5.46892C43.7152 5.65691 43.8294 5.91327 43.8294 6.19526V9.1818H41.9395V6.85324H6.35243V28.9938H6.3482C6.3482 29.3014 6.12835 29.5663 5.8197 29.6133C0.264117 30.4807 0.0188933 37.1331 5.65481 38.0859H41.9395V35.2916H43.8294V38.966C43.8294 39.248 43.7152 39.5044 43.5292 39.6924L43.525 39.6966C43.3389 39.8846 43.0852 40 42.8062 40H5.61253C4.09045 40 1.97645 38.7951 1.09703 37.5219C0.234521 36.2828 -0.0741223 34.6892 0.0146656 32.8349V9.49797C0.0146656 8.85281 0.0146656 8.78445 0.0146656 8.699C-0.0107024 4.5674 -0.0402987 0.102542 5.65481 0.00427259C5.68018 0 5.70132 0 5.72669 0C6.07338 0 6.35243 0.281991 6.35243 0.632344V5.16556ZM43.1191 18.3593C45.0682 18.3593 46.6452 19.9573 46.6452 21.9227C46.6452 23.8881 45.0639 25.486 43.1191 25.486C41.17 25.486 39.5929 23.8881 39.5929 21.9227C39.5929 19.9573 41.17 18.3593 43.1191 18.3593Z" fill="#E8F1FF"/>
</svg>
