<svg width="40" height="40" viewBox="0 0 40 40" fill="none" xmlns="http://www.w3.org/2000/svg">
<path d="M29.1924 20.008C29.1924 25.1094 25.0559 29.2459 19.9545 29.2459C14.8531 29.2459 10.7166 25.1094 10.7166 20.008C10.7166 14.9067 14.8531 10.7702 19.9545 10.7702C25.0559 10.7702 29.1924 14.9067 29.1924 20.008ZM34.1853 21.9953C34.4945 19.8367 36.9154 18.3419 39.9157 18.1452C39.719 15.9786 39.1823 13.9137 38.3366 11.9759C35.6133 13.2379 32.7708 13.0719 31.466 11.3322C30.1559 9.58314 30.8585 6.83573 32.8578 4.56875C31.2278 3.20375 29.3316 2.1104 27.2961 1.31014C26.267 4.13516 24.1526 6.03948 21.994 5.73034C19.8354 5.42121 18.3406 3.00033 18.1439 0C15.9652 0.19806 13.8387 0.71462 11.8916 1.56842C13.175 4.30378 13.08 7.13951 11.3322 8.45099C9.59251 9.75577 6.81833 9.11743 4.55671 7.14219C3.19973 8.76681 2.10773 10.5948 1.31014 12.6209C4.13516 13.6514 6.03948 15.7658 5.73034 17.9231C5.42121 20.0803 3.00033 21.5764 0 21.7732C0.195383 23.9277 0.742723 26.0141 1.57912 27.9425C3.06591 27.2586 4.56875 27.0151 5.84677 27.1944C6.93476 27.351 7.8461 27.7805 8.44965 28.5862C9.77049 30.3473 9.0813 33.1562 7.04584 35.4326C8.67581 36.7976 10.5721 37.8896 12.6076 38.6899C13.6367 35.8648 15.7511 33.9605 17.9097 34.2697C20.0682 34.5788 21.5631 36.9997 21.7598 40C23.9384 39.8019 26.0649 39.2854 28.012 38.4316C26.6952 35.6761 26.8224 32.7869 28.5835 31.466C29.3878 30.8625 30.4677 30.714 31.5557 30.8719C32.8177 31.0525 34.1586 31.7283 35.359 32.7748C36.7026 31.1596 37.8133 29.3075 38.6056 27.2961C35.7805 26.2656 33.8762 24.1539 34.1853 21.9953ZM19.9518 31.2774C13.725 31.2774 8.67581 26.2295 8.67581 20.0013C8.67581 13.7732 13.7237 8.72533 19.9518 8.72533C26.18 8.72533 31.2278 13.7732 31.2278 20.0013C31.2278 26.2295 26.18 31.2774 19.9518 31.2774Z" fill="#E8F1FF"/>
</svg>
