<svg width="56" height="60" viewBox="0 0 56 60" fill="none" xmlns="http://www.w3.org/2000/svg">
<path fill-rule="evenodd" clip-rule="evenodd" d="M38.0242 38.4375H51.3344C53.623 38.4375 55.5 40.3027 55.5 42.5879V55.8545C55.5 58.1348 53.6279 60 51.3344 60H38.0242C35.7356 60 33.8587 58.1348 33.8587 55.8545V42.5879C33.8636 40.3076 35.7356 38.4375 38.0242 38.4375ZM29.7617 55.2979C30.6242 55.2979 31.3201 55.9912 31.3201 56.8506C31.3201 57.71 30.6242 58.4033 29.7617 58.4033H3.62159C2.62185 58.4033 1.72013 57.998 1.05854 57.3438C0.406755 56.6846 0 55.7861 0 54.79V3.6084C0 2.6123 0.406755 1.71387 1.06344 1.05469C1.72013 0.405273 2.62675 0 3.62159 0H48.1245C49.1242 0 50.026 0.410156 50.6826 1.05957C51.3393 1.71387 51.7461 2.61719 51.7461 3.61328V33.5107C51.7461 34.3701 51.0502 35.0635 50.1877 35.0635C49.3301 35.0635 48.6293 34.3701 48.6293 33.5107V3.6084C48.6293 3.47168 48.5705 3.34473 48.4774 3.25195C48.3842 3.15918 48.2568 3.10059 48.1245 3.10059H3.62159C3.48437 3.10059 3.35695 3.15918 3.25894 3.24707C3.17073 3.34473 3.11192 3.4668 3.11192 3.6084V54.7803C3.11192 54.917 3.17073 55.0439 3.26384 55.1367C3.35695 55.2295 3.48437 55.2881 3.62649 55.2881L29.7617 55.2979ZM16.1918 27.5244C15.8977 27.0166 16.1085 25.5615 16.7456 25.0488C18.5588 23.9941 21.0581 24.3213 22.8028 23.1055C22.9057 22.9541 23.0135 22.7344 23.1213 22.4951C23.2781 22.1338 23.4252 21.7383 23.5183 21.4697C23.1311 21.0156 22.7979 20.5029 22.4793 19.9951L21.4306 18.3301C21.0483 17.7588 20.8474 17.2363 20.8376 16.8115C20.8327 16.6113 20.867 16.4307 20.9405 16.2646C21.0189 16.0938 21.1366 15.957 21.3032 15.8447C21.3816 15.791 21.4649 15.7471 21.558 15.7178C21.4894 14.8145 21.4649 13.6768 21.509 12.7246C21.5286 12.5 21.5776 12.2705 21.6364 12.0459C21.906 11.0889 22.5774 10.3223 23.4105 9.79492C23.8711 9.50195 24.371 9.28223 24.8954 9.13574C25.2286 9.03809 24.6111 7.97852 24.9542 7.94434C26.6204 7.77344 29.3207 9.29199 30.4821 10.5469C31.0653 11.1768 31.4328 12.0068 31.5113 13.1104L31.4475 15.8252C31.7367 15.9131 31.9229 16.0986 32.0013 16.3965C32.0846 16.7285 31.9964 17.1924 31.7122 17.8271C31.7073 17.8369 31.7024 17.8516 31.6926 17.8613L30.4968 19.8242C30.0558 20.5469 29.6098 21.2695 29.0315 21.8408C29.0854 21.9189 29.1393 21.9922 29.1932 22.0703C29.4285 22.417 29.6686 22.7637 29.9774 23.0713C29.9872 23.0811 29.997 23.0908 30.0019 23.1055C31.3789 24.0771 34.731 24.3115 36.0199 25.0244L36.0738 25.0537C36.7354 25.5615 36.9412 27.0166 36.6374 27.5244H16.1918ZM15.1381 45.3174C14.2805 45.3174 13.5748 44.6143 13.5748 43.7451C13.5748 42.8809 14.2707 42.1729 15.1381 42.1729H25.7334C26.5959 42.1729 27.2967 42.876 27.2967 43.7451C27.2967 44.6143 26.6008 45.3174 25.7334 45.3174H15.1381ZM15.1381 35.4883C14.2805 35.4883 13.5797 34.7949 13.5797 33.9355C13.5797 33.0811 14.2756 32.3828 15.1381 32.3828H36.1473C37.0098 32.3828 37.7057 33.0762 37.7057 33.9355C37.7057 34.7949 37.0098 35.4883 36.1473 35.4883H15.1381ZM43.3268 44.3457C43.3268 43.5986 43.9344 42.9932 44.6842 42.9932C45.434 42.9932 46.0417 43.5986 46.0417 44.3457V47.8662H49.5751C50.3249 47.8662 50.9326 48.4717 50.9326 49.2188C50.9326 49.9658 50.3249 50.5713 49.5751 50.5713H46.0417V54.0918C46.0417 54.8389 45.434 55.4443 44.6842 55.4443C43.9344 55.4443 43.3268 54.8389 43.3268 54.0918V50.5713H39.7885C39.0387 50.5713 38.431 49.9658 38.431 49.2188C38.431 48.4717 39.0387 47.8662 39.7885 47.8662H43.3219L43.3268 44.3457Z" fill="#5676FF"/>
<path fill-rule="evenodd" clip-rule="evenodd" d="M38.0242 38.4375H51.3344C53.623 38.4375 55.5 40.3027 55.5 42.5879V55.8545C55.5 58.1348 53.6279 60 51.3344 60H38.0242C35.7356 60 33.8587 58.1348 33.8587 55.8545V42.5879C33.8636 40.3076 35.7356 38.4375 38.0242 38.4375ZM29.7617 55.2979C30.6242 55.2979 31.3201 55.9912 31.3201 56.8506C31.3201 57.71 30.6242 58.4033 29.7617 58.4033H3.62159C2.62185 58.4033 1.72013 57.998 1.05854 57.3438C0.406755 56.6846 0 55.7861 0 54.79V3.6084C0 2.6123 0.406755 1.71387 1.06344 1.05469C1.72013 0.405273 2.62675 0 3.62159 0H48.1245C49.1242 0 50.026 0.410156 50.6826 1.05957C51.3393 1.71387 51.7461 2.61719 51.7461 3.61328V33.5107C51.7461 34.3701 51.0502 35.0635 50.1877 35.0635C49.3301 35.0635 48.6293 34.3701 48.6293 33.5107V3.6084C48.6293 3.47168 48.5705 3.34473 48.4774 3.25195C48.3842 3.15918 48.2568 3.10059 48.1245 3.10059H3.62159C3.48437 3.10059 3.35695 3.15918 3.25894 3.24707C3.17073 3.34473 3.11192 3.4668 3.11192 3.6084V54.7803C3.11192 54.917 3.17073 55.0439 3.26384 55.1367C3.35695 55.2295 3.48437 55.2881 3.62649 55.2881L29.7617 55.2979ZM16.1918 27.5244C15.8977 27.0166 16.1085 25.5615 16.7456 25.0488C18.5588 23.9941 21.0581 24.3213 22.8028 23.1055C22.9057 22.9541 23.0135 22.7344 23.1213 22.4951C23.2781 22.1338 23.4252 21.7383 23.5183 21.4697C23.1311 21.0156 22.7979 20.5029 22.4793 19.9951L21.4306 18.3301C21.0483 17.7588 20.8474 17.2363 20.8376 16.8115C20.8327 16.6113 20.867 16.4307 20.9405 16.2646C21.0189 16.0938 21.1366 15.957 21.3032 15.8447C21.3816 15.791 21.4649 15.7471 21.558 15.7178C21.4894 14.8145 21.4649 13.6768 21.509 12.7246C21.5286 12.5 21.5776 12.2705 21.6364 12.0459C21.906 11.0889 22.5774 10.3223 23.4105 9.79492C23.8711 9.50195 24.371 9.28223 24.8954 9.13574C25.2286 9.03809 24.6111 7.97852 24.9542 7.94434C26.6204 7.77344 29.3207 9.29199 30.4821 10.5469C31.0653 11.1768 31.4328 12.0068 31.5113 13.1104L31.4475 15.8252C31.7367 15.9131 31.9229 16.0986 32.0013 16.3965C32.0846 16.7285 31.9964 17.1924 31.7122 17.8271C31.7073 17.8369 31.7024 17.8516 31.6926 17.8613L30.4968 19.8242C30.0558 20.5469 29.6098 21.2695 29.0315 21.8408C29.0854 21.9189 29.1393 21.9922 29.1932 22.0703C29.4285 22.417 29.6686 22.7637 29.9774 23.0713C29.9872 23.0811 29.997 23.0908 30.0019 23.1055C31.3789 24.0771 34.731 24.3115 36.0199 25.0244L36.0738 25.0537C36.7354 25.5615 36.9412 27.0166 36.6374 27.5244H16.1918ZM15.1381 45.3174C14.2805 45.3174 13.5748 44.6143 13.5748 43.7451C13.5748 42.8809 14.2707 42.1729 15.1381 42.1729H25.7334C26.5959 42.1729 27.2967 42.876 27.2967 43.7451C27.2967 44.6143 26.6008 45.3174 25.7334 45.3174H15.1381ZM15.1381 35.4883C14.2805 35.4883 13.5797 34.7949 13.5797 33.9355C13.5797 33.0811 14.2756 32.3828 15.1381 32.3828H36.1473C37.0098 32.3828 37.7057 33.0762 37.7057 33.9355C37.7057 34.7949 37.0098 35.4883 36.1473 35.4883H15.1381ZM43.3268 44.3457C43.3268 43.5986 43.9344 42.9932 44.6842 42.9932C45.434 42.9932 46.0417 43.5986 46.0417 44.3457V47.8662H49.5751C50.3249 47.8662 50.9326 48.4717 50.9326 49.2188C50.9326 49.9658 50.3249 50.5713 49.5751 50.5713H46.0417V54.0918C46.0417 54.8389 45.434 55.4443 44.6842 55.4443C43.9344 55.4443 43.3268 54.8389 43.3268 54.0918V50.5713H39.7885C39.0387 50.5713 38.431 49.9658 38.431 49.2188C38.431 48.4717 39.0387 47.8662 39.7885 47.8662H43.3219L43.3268 44.3457Z" fill="black" fill-opacity="0.2"/>
<path fill-rule="evenodd" clip-rule="evenodd" d="M38.0242 38.4375H51.3344C53.623 38.4375 55.5 40.3027 55.5 42.5879V55.8545C55.5 58.1348 53.6279 60 51.3344 60H38.0242C35.7356 60 33.8587 58.1348 33.8587 55.8545V42.5879C33.8636 40.3076 35.7356 38.4375 38.0242 38.4375ZM29.7617 55.2979C30.6242 55.2979 31.3201 55.9912 31.3201 56.8506C31.3201 57.71 30.6242 58.4033 29.7617 58.4033H3.62159C2.62185 58.4033 1.72013 57.998 1.05854 57.3438C0.406755 56.6846 0 55.7861 0 54.79V3.6084C0 2.6123 0.406755 1.71387 1.06344 1.05469C1.72013 0.405273 2.62675 0 3.62159 0H48.1245C49.1242 0 50.026 0.410156 50.6826 1.05957C51.3393 1.71387 51.7461 2.61719 51.7461 3.61328V33.5107C51.7461 34.3701 51.0502 35.0635 50.1877 35.0635C49.3301 35.0635 48.6293 34.3701 48.6293 33.5107V3.6084C48.6293 3.47168 48.5705 3.34473 48.4774 3.25195C48.3842 3.15918 48.2568 3.10059 48.1245 3.10059H3.62159C3.48437 3.10059 3.35695 3.15918 3.25894 3.24707C3.17073 3.34473 3.11192 3.4668 3.11192 3.6084V54.7803C3.11192 54.917 3.17073 55.0439 3.26384 55.1367C3.35695 55.2295 3.48437 55.2881 3.62649 55.2881L29.7617 55.2979ZM16.1918 27.5244C15.8977 27.0166 16.1085 25.5615 16.7456 25.0488C18.5588 23.9941 21.0581 24.3213 22.8028 23.1055C22.9057 22.9541 23.0135 22.7344 23.1213 22.4951C23.2781 22.1338 23.4252 21.7383 23.5183 21.4697C23.1311 21.0156 22.7979 20.5029 22.4793 19.9951L21.4306 18.3301C21.0483 17.7588 20.8474 17.2363 20.8376 16.8115C20.8327 16.6113 20.867 16.4307 20.9405 16.2646C21.0189 16.0938 21.1366 15.957 21.3032 15.8447C21.3816 15.791 21.4649 15.7471 21.558 15.7178C21.4894 14.8145 21.4649 13.6768 21.509 12.7246C21.5286 12.5 21.5776 12.2705 21.6364 12.0459C21.906 11.0889 22.5774 10.3223 23.4105 9.79492C23.8711 9.50195 24.371 9.28223 24.8954 9.13574C25.2286 9.03809 24.6111 7.97852 24.9542 7.94434C26.6204 7.77344 29.3207 9.29199 30.4821 10.5469C31.0653 11.1768 31.4328 12.0068 31.5113 13.1104L31.4475 15.8252C31.7367 15.9131 31.9229 16.0986 32.0013 16.3965C32.0846 16.7285 31.9964 17.1924 31.7122 17.8271C31.7073 17.8369 31.7024 17.8516 31.6926 17.8613L30.4968 19.8242C30.0558 20.5469 29.6098 21.2695 29.0315 21.8408C29.0854 21.9189 29.1393 21.9922 29.1932 22.0703C29.4285 22.417 29.6686 22.7637 29.9774 23.0713C29.9872 23.0811 29.997 23.0908 30.0019 23.1055C31.3789 24.0771 34.731 24.3115 36.0199 25.0244L36.0738 25.0537C36.7354 25.5615 36.9412 27.0166 36.6374 27.5244H16.1918ZM15.1381 45.3174C14.2805 45.3174 13.5748 44.6143 13.5748 43.7451C13.5748 42.8809 14.2707 42.1729 15.1381 42.1729H25.7334C26.5959 42.1729 27.2967 42.876 27.2967 43.7451C27.2967 44.6143 26.6008 45.3174 25.7334 45.3174H15.1381ZM15.1381 35.4883C14.2805 35.4883 13.5797 34.7949 13.5797 33.9355C13.5797 33.0811 14.2756 32.3828 15.1381 32.3828H36.1473C37.0098 32.3828 37.7057 33.0762 37.7057 33.9355C37.7057 34.7949 37.0098 35.4883 36.1473 35.4883H15.1381ZM43.3268 44.3457C43.3268 43.5986 43.9344 42.9932 44.6842 42.9932C45.434 42.9932 46.0417 43.5986 46.0417 44.3457V47.8662H49.5751C50.3249 47.8662 50.9326 48.4717 50.9326 49.2188C50.9326 49.9658 50.3249 50.5713 49.5751 50.5713H46.0417V54.0918C46.0417 54.8389 45.434 55.4443 44.6842 55.4443C43.9344 55.4443 43.3268 54.8389 43.3268 54.0918V50.5713H39.7885C39.0387 50.5713 38.431 49.9658 38.431 49.2188C38.431 48.4717 39.0387 47.8662 39.7885 47.8662H43.3219L43.3268 44.3457Z" fill="black" fill-opacity="0.2"/>
</svg>
