<?xml version="1.0" standalone="no"?>
<!DOCTYPE svg PUBLIC "-//W3C//DTD SVG 20010904//EN"
 "http://www.w3.org/TR/2001/REC-SVG-20010904/DTD/svg10.dtd">
<svg version="1.0" xmlns="http://www.w3.org/2000/svg"
 width="512.000000pt" height="512.000000pt" viewBox="0 0 512.000000 512.000000"
 preserveAspectRatio="xMidYMid meet">

<g transform="translate(0.000000,512.000000) scale(0.100000,-0.100000)"
fill="#000000" stroke="none">
<path d="M2860 4625 c-57 -18 -124 -74 -153 -129 -21 -40 -22 -50 -25 -436 -3
-351 -1 -400 14 -439 33 -86 115 -153 204 -167 l42 -7 -6 -56 c-16 -161 -18
-251 -6 -266 26 -32 56 -13 252 155 l197 170 334 0 c367 0 390 3 459 60 20 17
49 56 65 88 l28 57 0 390 c0 346 -2 394 -17 427 -28 62 -65 103 -120 134 l-53
29 -585 2 c-481 2 -593 -1 -630 -12z m675 -420 c240 -167 240 -148 5 -312
-181 -126 -219 -143 -240 -104 -6 12 -10 115 -10 265 0 209 2 247 16 260 8 9
23 16 32 16 10 0 98 -56 197 -125z"/>
<path d="M404 4250 c-12 -4 -31 -21 -43 -36 l-21 -27 0 -1104 c0 -794 3 -1110
11 -1126 6 -12 21 -30 33 -39 20 -17 14 -18 -137 -18 -121 0 -165 -4 -187 -15
-68 -35 -78 -132 -21 -189 l31 -31 380 -3 380 -3 0 29 c0 72 58 207 115 271
19 21 35 41 35 45 0 3 -115 6 -255 6 l-255 0 0 1065 0 1065 975 0 975 0 0 60
0 60 -997 -1 c-549 0 -1008 -4 -1019 -9z"/>
<path d="M4520 4200 l0 -60 60 0 60 0 0 -1065 0 -1065 -1380 0 c-759 0 -1380
-3 -1380 -6 0 -4 16 -24 35 -45 57 -64 115 -199 115 -271 l0 -28 149 0 148 0
36 58 c53 85 161 184 250 226 152 74 309 72 465 -5 94 -46 196 -140 247 -227
l30 -52 68 0 67 0 57 55 c93 92 252 155 393 155 142 0 301 -63 397 -156 l56
-55 328 3 329 3 31 31 c57 57 47 154 -21 189 -23 12 -67 15 -201 15 l-171 0
30 28 c21 20 32 41 37 73 3 24 5 526 3 1114 -3 1015 -4 1071 -21 1097 -24 35
-65 48 -148 48 l-69 0 0 -60z"/>
<path d="M1740 3918 c-36 -13 -94 -43 -130 -67 -66 -45 -217 -190 -258 -248
l-22 -31 37 -19 c65 -32 77 -59 83 -186 4 -84 1 -122 -10 -154 -27 -77 18
-203 72 -203 11 0 20 -10 24 -27 10 -51 36 -101 65 -129 26 -25 29 -33 23 -69
-5 -38 -3 -45 28 -75 18 -18 58 -45 88 -59 47 -22 69 -26 155 -26 87 0 107 3
156 26 67 32 102 75 98 123 -3 26 4 42 29 70 39 45 57 80 66 129 6 31 11 37
31 37 28 0 44 26 68 108 18 60 8 107 -24 117 -24 8 -24 17 0 39 58 53 88 222
57 328 -28 96 -143 198 -225 198 -14 0 -43 18 -71 44 -100 94 -214 118 -340
74z"/>
<path d="M2920 2880 c-11 -11 -20 -31 -20 -45 0 -14 9 -34 20 -45 20 -20 33
-20 718 -20 l699 0 21 23 c28 30 28 58 -1 85 l-23 22 -697 0 c-684 0 -697 0
-717 -20z"/>
<path d="M1365 2665 c-66 -33 -158 -76 -203 -94 -103 -41 -145 -77 -170 -144
-20 -53 -42 -172 -42 -226 l0 -31 927 0 926 0 -6 98 c-10 158 -42 233 -120
280 -18 11 -79 37 -137 57 -58 20 -142 56 -187 80 l-83 42 -24 -42 c-30 -50
-91 -107 -145 -135 -139 -71 -345 -61 -478 23 -44 28 -123 113 -123 133 0 7
-3 14 -7 16 -5 2 -62 -23 -128 -57z"/>
<path d="M3320 2472 c-27 -22 -29 -65 -5 -92 18 -19 34 -20 522 -20 490 0 504
1 523 20 11 11 20 31 20 45 0 14 -9 34 -20 45 -19 19 -33 20 -519 20 -466 0
-500 -1 -521 -18z"/>
<path d="M1362 1929 c-119 -15 -215 -76 -267 -170 -23 -43 -29 -69 -32 -134
-3 -50 -12 -99 -25 -130 -40 -97 -15 -200 90 -373 38 -64 44 -79 39 -113 -13
-97 -96 -153 -280 -189 -159 -30 -213 -53 -273 -115 -51 -52 -74 -100 -90
-187 l-6 -38 2041 0 c1660 0 2041 2 2041 13 0 7 -7 40 -15 72 -32 120 -85 165
-225 185 -139 21 -178 42 -206 115 l-17 45 51 77 c28 43 58 98 67 122 19 54
19 128 0 161 -8 14 -14 49 -15 78 0 94 -18 142 -74 197 -67 67 -134 89 -249
83 -168 -9 -262 -96 -274 -251 -2 -40 -11 -89 -19 -110 -30 -80 -11 -161 66
-283 36 -57 41 -72 36 -103 -12 -77 -68 -119 -198 -151 -90 -22 -173 -54 -183
-70 -6 -10 -210 57 -271 88 -62 32 -74 48 -74 98 l0 44 164 0 c90 0 171 3 180
6 23 9 20 27 -20 107 -50 97 -71 163 -89 271 -31 181 -83 301 -167 386 -66 65
-126 93 -210 98 -94 6 -155 -17 -227 -84 -95 -88 -146 -202 -177 -399 -19
-115 -51 -213 -102 -304 -28 -51 -32 -65 -21 -72 8 -5 92 -9 187 -9 l172 0 0
-34 c0 -19 -3 -41 -6 -50 -11 -30 -107 -80 -242 -126 -75 -26 -145 -50 -154
-54 -13 -6 -22 3 -42 42 -45 89 -129 139 -273 162 -174 29 -246 69 -278 154
-20 52 -17 64 35 146 77 118 103 179 108 256 4 58 1 77 -17 112 -15 29 -21 60
-21 104 0 81 -13 125 -53 185 -72 108 -217 161 -385 142z"/>
</g>
</svg>
